<?xml version="1.0" encoding="UTF-8"?>
<svg id="Layer_2" data-name="Layer 2" xmlns="http://www.w3.org/2000/svg" viewBox="0 0 1208.85 1295.55">
  <defs>
    <style>
      .cls-1 {
        fill: #231f20;
      }

      .cls-2 {
        fill: none;
        stroke: #231f20;
        stroke-miterlimit: 10;
        stroke-width: 17px;
      }
    </style>
  </defs>
  <g id="Layer_1-2" data-name="Layer 1">
    <path class="cls-1" d="M295.03,708.23c40.22,0,72.94,32.72,72.94,72.94s-32.72,72.94-72.94,72.94-72.94-32.72-72.94-72.94,32.72-72.94,72.94-72.94M295.03,691.23c-49.67,0-89.94,40.27-89.94,89.94s40.27,89.94,89.94,89.94,89.94-40.27,89.94-89.94-40.27-89.94-89.94-89.94h0Z"/>
    <path class="cls-1" d="M645.2,794.91c15.42,0,27.97,12.55,27.97,27.97s-12.55,27.97-27.97,27.97-27.97-12.55-27.97-27.97,12.55-27.97,27.97-27.97M645.2,777.91c-24.84,0-44.97,20.13-44.97,44.97s20.13,44.97,44.97,44.97,44.97-20.13,44.97-44.97-20.13-44.97-44.97-44.97h0Z"/>
    <path class="cls-2" d="M668.66,1023.51c0,19.99-16.21,36.2-36.2,36.2s-36.2-16.21-36.2-36.2"/>
    <path class="cls-2" d="M403.09,862.44c0-44.89,36.39-81.28,81.28-81.28s81.28,36.39,81.28,81.28"/>
    <path class="cls-2" d="M538.98,994.13c0-44.89,36.39-81.28,81.28-81.28"/>
    <path class="cls-2" d="M642.88,912.86c44.89,0,81.28,36.39,81.28,81.28"/>
    <polyline class="cls-2" points="439.61 538.87 439.61 620.1 520.73 620.1"/>
    <polyline class="cls-2" points="439.61 408 439.61 489.98 512.08 489.98 512.08 408"/>
    <polyline class="cls-2" points="546.85 538.98 546.85 710.21 718.08 710.21"/>
    <polyline class="cls-2" points="403.09 530.5 231.85 530.5 231.85 367.47 403.09 367.47"/>
    <line class="cls-2" x1="547.29" y1="96.19" x2="500.74" y2="49.64"/>
    <line class="cls-2" x1="457.47" y1="96.19" x2="367.29" y2="6.01"/>
    <line class="cls-2" x1="277.72" y1="277.85" x2="6.01" y2="6.14"/>
    <line class="cls-2" x1="367.29" y1="186.14" x2="187.29" y2="6.14"/>
    <line class="cls-2" x1="637.29" y1="96.14" x2="612.61" y2="71.46"/>
    <line class="cls-2" x1="1110.35" y1="1295.55" x2="1110.35" y2="1250.49"/>
    <line class="cls-2" x1="1020.35" y1="1295.55" x2="1020.35" y2="1205.55"/>
    <line class="cls-2" x1="839.96" y1="1295.55" x2="839.96" y2="935.55"/>
    <line class="cls-2" x1="930.59" y1="1295.55" x2="930.59" y2="1115.55"/>
    <line class="cls-2" x1="1200.35" y1="1295.55" x2="1200.35" y2="1273.02"/>
    <path class="cls-2" d="M321.42,1077.39c0-94.52,36.56-171.15,81.66-171.15s81.66,76.63,81.66,171.15"/>
    <path class="cls-2" d="M221.28,1008.51c0-44.76,16.55-81.04,36.97-81.04s36.97,36.28,36.97,81.04"/>
    <path class="cls-1" d="M300.47,582.64v56.45h-56.45v-56.45h56.45M317.47,565.64h-90.45v90.45h90.45v-90.45h0Z"/>
  </g>
</svg>